<svg xmlns="http://www.w3.org/2000/svg" viewBox="0 0 1440 320">
                <path fill="#FFFFFF" fill-opacity="1" d="M0,96L30,117.3C60,139,120,181,180,181.3C240,181,300,139,360,117.3C420,96,480,96,540,112C600,128,660,160,720,160C780,160,840,128,900,128C960,128,1020,160,1080,170.7C1140,181,1200,171,1260,176C1320,181,1380,203,1410,213.3L1440,224L1440,320L1410,320C1380,320,1320,320,1260,320C1200,320,1140,320,1080,320C1020,320,960,320,900,320C840,320,780,320,720,320C660,320,600,320,540,320C480,320,420,320,360,320C300,320,240,320,180,320C120,320,60,320,30,320L0,320Z"></path>
</svg>