<?xml version="1.0" standalone="no"?>
<svg version="1.0" xmlns="http://www.w3.org/2000/svg"
 width="512.000000pt" height="512.000000pt" viewBox="0 0 512.000000 512.000000"
 preserveAspectRatio="xMidYMid meet">
<g transform="translate(0.000000,512.000000) scale(0.100000,-0.100000)"
fill="#FFFFFF" stroke="none">
<path d="M1464 4769 c-40 -20 -74 -116 -74 -207 0 -56 27 -168 53 -225 53
-117 189 -242 354 -327 58 -30 89 -52 104 -76 21 -35 32 -40 110 -47 63 -6
123 -36 127 -64 2 -14 -9 -36 -31 -60 -19 -21 -37 -47 -41 -58 -4 -11 -24 -32
-45 -46 -46 -32 -51 -52 -51 -198 l0 -106 -47 -35 c-38 -28 -49 -42 -51 -68
-2 -23 -11 -36 -31 -46 -48 -26 -130 -95 -161 -138 -51 -70 -34 -128 38 -128
51 0 68 -12 45 -32 -45 -39 -123 -53 -187 -34 l-29 9 6 -48 c10 -67 48 -145
96 -198 l41 -44 -10 -53 c-24 -128 -5 -219 62 -295 43 -49 41 -64 -9 -65 -44
0 -92 -68 -84 -120 2 -16 5 -65 16 -275 l8 -140 -49 -115 c-27 -63 -56 -122
-66 -130 -9 -8 -28 -42 -41 -75 -14 -33 -99 -213 -190 -400 -223 -461 -228
-474 -234 -567 -5 -65 -2 -83 17 -122 42 -87 172 -179 301 -212 114 -29 218
-4 334 80 56 40 63 36 64 -36 2 -63 7 -68 73 -68 l61 0 -6 28 c-3 15 -15 102
-27 195 -23 167 -23 167 -48 165 -20 -2 -30 6 -55 45 l-29 48 23 44 23 44 19
-33 c10 -18 27 -37 37 -44 16 -10 18 -7 13 31 -6 55 -51 279 -60 303 -14 38
21 -4 102 -120 44 -63 81 -114 82 -112 1 1 -2 16 -7 32 -5 16 -12 41 -15 56
-3 15 -38 60 -81 105 l-76 78 -13 -25 c-8 -14 -44 -115 -81 -225 -63 -187 -70
-203 -110 -241 -134 -127 -319 -146 -398 -41 -17 23 -21 43 -21 100 1 72 1 73
189 487 103 228 192 419 196 424 16 16 160 -220 160 -261 0 -10 -18 -70 -39
-133 -34 -100 -92 -336 -91 -373 0 -6 13 20 29 58 40 98 154 357 166 376 10
17 115 54 115 41 0 -3 -19 -25 -42 -49 -23 -23 -39 -45 -36 -49 4 -3 63 17
133 44 l126 50 195 -105 c107 -58 196 -104 198 -102 1 2 21 37 45 77 23 39 44
72 47 72 3 0 31 -18 61 -40 31 -22 60 -40 65 -40 5 0 31 35 59 78 28 42 54 78
59 80 5 2 25 -19 45 -47 20 -28 41 -51 46 -51 8 0 31 32 74 105 9 15 25 11
162 -43 158 -63 208 -91 243 -135 24 -30 123 -309 176 -495 41 -143 44 -136
-53 -176 -69 -29 -99 -33 -68 -11 18 14 18 20 7 98 -7 45 -27 134 -44 197
l-33 115 -3 -294 c-1 -162 0 -296 2 -299 9 -8 288 152 298 171 7 13 1 49 -22
130 -57 198 -161 520 -191 586 -47 103 -68 117 -320 211 -123 46 -229 87 -235
92 -7 5 -14 22 -18 38 -3 19 -15 35 -31 42 -20 9 -25 19 -26 47 0 20 -4 77 -8
126 l-8 90 38 43 c55 63 78 118 91 216 12 86 12 86 41 86 19 0 40 11 61 32 28
28 34 43 40 96 4 34 14 81 22 103 18 53 18 140 0 184 -15 35 -67 75 -98 75
-15 0 -13 12 18 96 60 167 55 262 -20 372 -38 54 -38 56 21 86 70 35 91 86 56
136 -50 74 -130 154 -180 178 -41 20 -53 31 -53 49 0 27 -44 58 -96 68 -26 4
-34 11 -35 28 0 12 -4 78 -8 146 -6 114 -9 125 -30 140 -13 9 -45 36 -73 60
-67 61 -64 84 16 117 33 13 69 24 80 24 12 0 84 41 161 91 290 189 397 348
382 564 -10 144 -45 206 -123 221 -90 17 -164 -45 -164 -137 0 -55 -15 -69
-75 -69 -30 0 -39 5 -55 33 -39 65 -170 124 -339 152 -135 23 -339 16 -456
-14 -141 -38 -255 -101 -255 -142 0 -33 -117 -38 -137 -6 -4 6 -6 24 -5 40 4
48 -31 111 -71 130 -39 19 -101 21 -133 6z m142 -60 c42 -40 29 -106 -26 -129
-25 -10 -34 -10 -54 4 -33 21 -41 52 -22 81 9 14 20 25 25 25 22 0 41 -13 40
-29 0 -10 -2 -11 -6 -3 -7 17 -43 15 -43 -2 0 -47 49 -65 70 -26 23 44 -17 81
-72 66 -77 -19 -75 -216 2 -351 47 -82 182 -204 304 -275 99 -58 129 -80 109
-80 -4 0 -55 28 -113 63 -135 80 -272 212 -320 307 -72 143 -82 293 -23 356
21 23 30 26 65 21 22 -3 51 -16 64 -28z m1585 5 c49 -44 64 -213 29 -327 -24
-79 -85 -172 -148 -228 -79 -70 -266 -189 -278 -177 -2 2 25 21 60 41 150 86
273 213 318 327 16 40 22 83 25 160 4 93 2 109 -16 138 -29 46 -63 60 -96 38
-27 -18 -32 -45 -13 -64 17 -17 55 -15 62 3 9 24 -5 47 -25 42 -11 -3 -17 -1
-13 4 9 16 43 10 54 -10 23 -43 -1 -81 -51 -81 -53 0 -84 58 -63 115 17 43
116 55 155 19z m-677 -25 l75 -11 -5 -62 c-18 -202 -53 -388 -98 -510 -14 -39
-23 -73 -20 -78 3 -4 19 -8 35 -8 18 0 41 -10 56 -24 l27 -25 -45 16 c-27 10
-83 16 -146 18 -93 2 -105 4 -136 28 -102 77 -153 222 -203 575 -6 38 -13 39
-81 7 -61 -28 -59 -11 -17 -195 34 -146 79 -281 123 -372 21 -43 35 -78 30
-78 -4 0 -35 25 -68 56 -89 82 -150 221 -172 393 -11 85 -11 87 16 134 15 26
37 54 49 62 32 21 130 54 206 70 81 16 275 19 374 4z m156 -39 c18 -12 2 -12
-25 0 -13 6 -15 9 -5 9 8 0 22 -4 30 -9z m85 -41 c28 -17 58 -41 65 -53 18
-27 15 -153 -6 -255 -15 -74 -81 -232 -102 -245 -5 -3 1 28 14 70 34 105 54
242 53 354 l-1 95 -25 -105 c-55 -238 -103 -354 -172 -414 -21 -19 -21 -18 3
25 41 74 103 357 109 501 1 32 4 58 7 58 2 0 27 -14 55 -31z m-995 -70 c48 0
52 -2 32 -12 -30 -14 -109 5 -137 34 -20 21 -20 21 15 0 23 -14 53 -21 90 -22z
m-246 -19 c4 -24 17 -52 31 -66 22 -22 23 -28 3 -25 -12 2 -10 -6 16 -58 49
-97 182 -214 324 -285 28 -14 52 -29 52 -31 0 -3 -15 2 -32 10 -180 88 -327
214 -383 329 -27 56 -48 185 -28 173 6 -4 13 -25 17 -47z m1478 30 c-28 -23
-109 -37 -125 -21 -8 8 2 11 39 11 27 1 60 7 74 15 35 20 39 18 12 -5z m165 3
c12 -31 -14 -163 -46 -227 -48 -98 -159 -200 -291 -267 -95 -48 -81 -28 22 32
105 62 193 138 237 207 40 63 65 159 56 223 -5 34 -3 49 4 49 7 0 15 -8 18
-17z m-1516 -28 c29 -20 78 -43 111 -52 67 -19 79 -35 16 -22 -81 18 -204 81
-192 100 7 13 6 13 65 -26z m1457 26 c30 -18 -160 -102 -227 -100 -23 0 -24 1
-6 9 11 4 38 13 60 19 22 6 65 26 95 45 63 39 61 38 78 27z m-1512 -62 c25
-28 97 -63 161 -79 58 -15 53 -7 88 -135 9 -32 28 -81 41 -108 l25 -48 -23 12
c-123 65 -215 159 -279 287 -46 91 -50 112 -13 71z m1510 -73 c-22 -73 -86
-166 -149 -214 -57 -44 -150 -102 -154 -98 -2 2 8 32 21 68 13 35 30 93 36
129 6 35 13 71 15 79 3 10 32 23 75 34 39 10 92 32 118 50 55 37 60 30 38 -48z
m-576 -450 c24 -11 27 -14 10 -11 -14 4 -63 9 -110 12 -94 6 -176 -7 -236 -37
-21 -11 -39 -18 -42 -16 -8 8 88 57 129 66 64 13 208 5 249 -14z m210 12 c0
-7 -19 -23 -43 -35 l-42 -23 37 35 c41 38 48 41 48 23z m-730 -23 c10 -12 10
-15 -4 -15 -9 0 -16 7 -16 15 0 8 2 15 4 15 2 0 9 -7 16 -15z m523 -48 c15 -9
24 -23 21 -30 -4 -11 -17 -11 -72 1 -73 15 -151 10 -229 -13 -31 -9 -51 -11
-57 -5 -15 15 5 30 66 52 69 24 231 22 271 -5z m-12 -95 c72 -37 75 -52 7 -40
-59 11 -312 5 -343 -8 -18 -7 -19 -6 -6 10 32 38 118 64 222 65 54 1 76 -4
120 -27z m24 -62 c38 -6 74 -16 80 -22 7 -8 4 -9 -10 -3 -11 4 -83 10 -160 12
-132 5 -255 -8 -317 -32 -11 -4 -18 -3 -18 4 0 11 79 37 135 44 62 8 222 6
290 -3z m106 -82 c34 -15 36 -18 42 -78 4 -35 7 -94 7 -133 l0 -70 -37 7 c-21
3 -90 9 -154 13 -174 9 -358 -27 -504 -99 -73 -36 -15 8 80 61 89 50 97 63 20
36 -22 -8 -43 -15 -47 -15 -5 0 -8 50 -8 110 l0 111 43 18 c24 11 75 26 113
35 38 8 78 18 89 20 11 3 88 4 170 2 108 -2 160 -7 186 -18z m-38 -343 c108
-16 227 -53 301 -93 52 -29 123 -89 114 -97 -3 -3 -42 11 -88 30 -141 63 -253
86 -435 92 -256 8 -469 -38 -663 -143 -46 -25 -86 -43 -89 -40 -11 11 119 101
212 146 208 102 430 138 648 105z m37 -181 c186 -43 320 -160 320 -277 0 -15
-8 -9 -29 24 -15 25 -45 59 -66 77 -57 47 -122 65 -82 23 6 -7 -12 5 -42 27
-67 50 -129 74 -262 102 -57 12 -113 26 -124 31 -38 15 217 9 285 -7z m-108
-65 c107 -23 254 -113 292 -180 l20 -34 -36 31 c-52 46 -133 89 -223 120 -67
22 -103 27 -220 32 -265 9 -391 -27 -510 -146 -66 -66 -125 -101 -183 -109
-27 -4 -42 -1 -51 11 -12 14 -9 16 28 16 64 0 108 24 185 103 40 39 93 82 119
95 106 52 448 88 579 61z m-161 -145 c62 -18 139 -60 139 -75 0 -7 -14 -8 -42
-2 -24 4 -91 8 -150 8 -109 0 -116 8 -17 20 30 3 76 2 104 -4 66 -12 68 -7 5
14 -63 21 -194 24 -270 6 -92 -22 -179 -69 -252 -137 -61 -58 -71 -64 -111
-64 -32 0 -53 8 -85 31 -23 17 -42 35 -42 40 0 12 47 12 55 -1 8 -14 81 -13
108 1 12 7 50 38 84 70 52 48 76 62 140 83 96 31 247 35 334 10z m444 -144
c90 -56 115 -147 115 -433 0 -179 2 -198 18 -204 9 -3 25 -13 35 -21 16 -14
17 -12 17 26 0 33 3 40 15 36 18 -7 19 -3 3 31 -19 42 4 52 35 16 32 -38 41
-39 32 -3 -12 51 -33 72 -70 72 -28 0 -35 4 -35 20 0 25 62 39 86 19 38 -31
46 -109 21 -200 -9 -30 -19 -78 -22 -107 -7 -55 -25 -82 -54 -82 -28 0 -41 21
-41 70 0 34 -5 48 -20 58 -19 12 -20 10 -20 -55 -1 -134 -17 -250 -44 -309
-32 -69 -156 -197 -236 -242 -45 -26 -66 -32 -116 -32 -130 0 -331 87 -433
188 -35 34 -65 61 -66 60 -1 -2 -12 -21 -23 -44 -11 -22 -27 -46 -35 -53 -24
-20 -74 -30 -86 -18 -20 20 -48 -21 -100 -148 -50 -121 -59 -159 -43 -169 4
-2 36 51 70 119 37 74 70 129 83 136 19 10 21 9 15 -7 -4 -10 -32 -103 -63
-206 l-56 -189 -37 78 c-20 43 -60 108 -88 145 l-51 67 53 133 54 133 -8 96
c-5 53 -11 120 -15 150 -6 52 -5 56 33 104 44 55 82 81 106 72 24 -10 19 -19
-26 -51 -23 -17 -36 -32 -30 -34 8 -2 10 -17 6 -43 -6 -35 -4 -39 15 -39 16 0
21 6 21 28 0 32 25 72 45 72 21 0 45 -41 45 -77 0 -32 -1 -33 -44 -33 l-44 0
10 -36 c12 -46 16 -191 5 -224 l-9 -25 17 22 16 23 29 -21 c37 -28 60 -19 60
22 0 25 10 42 44 75 32 31 41 45 33 53 -18 18 -31 13 -72 -29 -47 -48 -62 -40
-42 21 8 24 18 63 22 87 6 36 10 42 31 42 13 0 24 3 24 7 0 4 -25 60 -55 124
-57 122 -78 200 -73 270 3 39 5 41 56 58 51 18 52 18 52 -2 l0 -20 23 20 c49
44 92 66 155 82 l67 16 1 45 c0 40 7 51 73 127 40 45 94 96 119 113 41 27 54
31 96 27 26 -2 67 2 90 9 61 20 165 12 211 -16z m-515 -61 c-77 -70 -195 -146
-337 -219 -110 -56 -127 -62 -172 -59 -47 4 -51 2 -51 -18 0 -34 34 -115 70
-170 30 -44 30 -46 6 -23 -37 34 -83 134 -91 197 l-7 52 33 -9 c28 -8 102 0
115 12 2 3 8 29 14 58 15 77 42 129 97 180 l47 45 -38 -44 c-45 -51 -86 -136
-93 -192 l-6 -40 28 11 c75 28 211 108 315 184 63 46 117 84 120 85 3 0 -20
-22 -50 -50z m757 -26 c-3 -54 -15 -101 -35 -153 -34 -82 -38 -80 -45 25 -3
39 -8 79 -12 90 -6 18 -5 18 5 3 6 -10 14 -41 17 -69 l6 -51 25 58 c13 33 27
85 30 116 7 86 15 70 9 -19z m-1247 -562 c0 -5 -14 -14 -30 -21 -17 -7 -44
-29 -60 -49 l-30 -36 0 31 c0 39 34 71 80 77 19 2 36 5 38 5 1 1 2 -2 2 -7z
m284 -591 c34 -23 45 -37 50 -67 12 -76 8 -98 -24 -121 -22 -17 -35 -40 -51
-91 l-21 -70 -91 -30 c-50 -17 -92 -29 -94 -27 -4 4 52 275 70 335 10 37 18
46 43 53 17 4 39 17 49 28 10 11 20 20 22 20 3 0 24 -13 47 -30z m235 -130
c76 -44 228 -120 274 -136 l38 -13 69 106 68 107 6 -35 c7 -36 26 -206 26
-226 0 -7 7 -10 16 -6 12 4 -62 -111 -114 -177 -2 -3 -27 21 -55 52 -60 65
-76 75 -289 188 l-158 83 0 64 0 65 33 -20 c17 -11 56 -34 86 -52z m69 -239
c83 -46 152 -88 152 -95 -1 -6 -13 -35 -28 -64 l-28 -53 -186 116 -186 116 14
45 c20 67 21 67 67 41 23 -13 111 -61 195 -106z m-1167 -941 c28 -25 30 -30
16 -36 -43 -16 -98 59 -96 133 l0 38 24 -53 c13 -28 38 -65 56 -82z m469 9
c-7 -24 -21 -58 -31 -76 -24 -38 -103 -79 -169 -87 l-45 -6 37 14 c82 32 163
103 196 173 21 44 26 35 12 -18z"/>
<path d="M2199 4549 c-10 -45 9 -240 31 -324 22 -84 55 -145 94 -170 28 -18
126 -32 126 -18 0 5 -7 29 -15 54 -8 24 -25 111 -38 193 l-23 149 -11 -158
c-7 -86 -14 -160 -17 -163 -9 -9 -37 20 -57 60 -25 49 -57 184 -73 306 -8 63
-14 88 -17 71z"/>
<path d="M2573 2580 c-18 -7 -23 -18 -23 -43 0 -19 6 -39 13 -45 6 -5 50 -10
97 -9 67 0 95 -4 134 -21 27 -12 51 -21 52 -19 2 2 -9 24 -26 50 -18 29 -45
54 -71 68 -47 24 -142 34 -176 19z"/>
<path d="M2610 2352 c-30 -30 -47 -90 -35 -119 8 -20 11 -15 19 38 9 50 39 79
83 79 29 0 43 -8 75 -40 43 -46 50 -40 15 11 -43 65 -110 78 -157 31z"/>
<path d="M2637 2334 c-13 -13 -7 -115 8 -144 10 -19 24 -31 38 -31 14 -1 10
-4 -13 -9 -35 -7 -35 -7 -5 -9 17 0 37 4 45 9 8 5 10 10 4 10 -7 0 -9 19 -7
53 3 37 -1 62 -14 87 -17 34 -41 48 -56 34z"/>
<path d="M2101 2303 c-17 -16 -33 -41 -37 -58 l-6 -30 25 36 c21 29 45 49 60
49 1 0 2 -22 2 -49 0 -61 45 -134 87 -139 53 -6 75 108 33 172 -35 53 -118 62
-164 19z m107 -62 c3 -46 1 -52 -15 -49 -20 4 -29 44 -18 85 10 41 30 20 33
-36z"/>
<path d="M2321 2252 c4 -37 5 -92 2 -122 -11 -114 27 -171 114 -169 47 0 109
20 106 34 -1 6 -34 15 -73 21 -40 6 -75 16 -80 23 -4 8 -11 45 -14 85 -8 84
-31 169 -49 184 -11 9 -12 -1 -6 -56z"/>
<path d="M2118 2089 c15 -14 69 -18 95 -6 26 11 23 12 -37 12 -36 0 -62 -3
-58 -6z"/>
<path d="M2635 1882 c-68 -21 -104 -25 -244 -29 -169 -4 -191 -9 -191 -45 0
-16 3 -18 14 -9 11 9 18 5 35 -22 52 -85 158 -158 248 -173 48 -7 119 21 141
56 12 20 12 21 -12 4 -39 -25 -96 -35 -139 -23 -37 10 -117 72 -117 90 0 5 31
9 68 9 72 0 157 23 220 60 27 17 37 18 49 9 8 -7 12 -22 9 -33 -5 -20 -4 -20
9 -2 8 10 17 38 21 62 3 24 10 41 15 38 13 -8 11 10 -3 24 -16 16 -28 14 -123
-16z m-9 -67 c-56 -42 -259 -56 -296 -20 -12 13 -3 15 80 16 52 0 115 4 140 8
25 5 56 9 70 9 24 1 24 1 6 -13z"/>
<path d="M3427 745 c10 -71 74 -410 79 -414 12 -12 2 123 -16 210 -22 109 -73
272 -63 204z"/>
<path d="M2180 487 c0 -10 90 -222 154 -362 l54 -120 57 -3 c45 -2 55 0 49 10
-43 70 -298 465 -305 473 -5 5 -9 6 -9 2z"/>
</g>
</svg>