<?xml version="1.0" standalone="no"?>
<svg version="1.0" xmlns="http://www.w3.org/2000/svg"
 width="512.000000pt" height="512.000000pt" viewBox="0 0 512.000000 512.000000"
 preserveAspectRatio="xMidYMid meet">
<g transform="translate(0.000000,512.000000) scale(0.100000,-0.100000)"
fill="#002A4C" stroke="none">
<path d="M2461 4654 c-1 -32 -68 -268 -92 -324 -12 -28 -31 -56 -43 -62 -12
-6 -71 -19 -131 -29 -195 -32 -328 -87 -361 -151 -14 -26 -14 -37 -4 -69 12
-36 12 -40 -19 -74 -17 -20 -31 -46 -31 -58 0 -41 -13 -49 -64 -42 -25 4 -48
11 -51 15 -3 4 4 28 15 51 39 87 19 163 -56 210 -32 19 -52 24 -109 24 -85 -1
-134 -23 -192 -89 -127 -144 -172 -392 -109 -601 56 -187 181 -377 335 -513
42 -38 131 -105 197 -150 139 -94 249 -191 258 -227 9 -37 -9 -65 -43 -65 -16
0 -34 7 -41 15 -9 10 -9 15 -1 15 30 0 -12 106 -46 118 -15 4 -16 -11 -3 -98
11 -81 39 -110 104 -110 45 0 88 30 101 71 4 10 10 19 14 19 5 0 41 -41 80
-90 40 -50 81 -95 92 -100 10 -6 19 -17 19 -24 0 -7 9 -21 20 -31 11 -10 20
-28 20 -39 0 -12 9 -27 19 -33 28 -18 41 -72 47 -201 9 -185 -16 -285 -95
-376 -27 -31 -41 -56 -39 -70 2 -16 -9 -29 -47 -54 -27 -18 -71 -55 -97 -82
l-46 -50 -84 0 c-122 0 -118 9 -118 -236 0 -224 -5 -243 -60 -256 -19 -5 -45
-20 -57 -34 -20 -22 -23 -36 -23 -118 0 -107 -7 -119 -79 -133 -50 -9 -72 -33
-55 -60 11 -17 65 -18 909 -18 844 0 898 1 909 18 16 26 -4 51 -48 58 -20 3
-48 16 -61 29 -23 22 -25 31 -25 113 0 83 -2 90 -28 116 -17 17 -43 30 -69 34
-27 5 -46 14 -53 26 -6 12 -10 100 -10 213 0 239 -1 242 -88 246 -61 3 -62 4
-82 41 -10 22 -35 55 -53 75 -28 30 -41 36 -75 36 -34 0 -41 4 -46 24 -3 13
-30 46 -60 73 -64 59 -83 92 -102 181 -16 78 -19 198 -4 207 6 3 7 17 4 30
-10 39 15 137 42 166 16 16 22 32 18 42 -4 12 8 34 39 70 24 28 69 87 100 130
l56 77 17 -35 c22 -46 49 -65 96 -65 67 0 117 67 118 158 l0 23 -30 -23 c-17
-12 -30 -31 -30 -44 0 -26 -15 -40 -52 -49 -27 -7 -27 -6 -21 32 8 54 38 82
176 158 173 96 238 144 357 265 213 216 325 467 337 754 6 141 -4 211 -42 286
-29 57 -57 83 -120 112 -42 19 -67 23 -160 23 -94 0 -116 -3 -151 -22 -77 -41
-102 -115 -66 -196 l21 -46 -49 -7 c-81 -11 -82 -13 -91 -165 -11 -178 -11
-238 0 -219 5 8 11 31 15 50 l6 35 77 1 c98 1 166 29 222 89 73 80 75 179 5
271 -19 24 -34 46 -34 49 0 3 16 5 35 5 26 0 43 -7 59 -25 40 -43 51 -105 50
-275 0 -141 -3 -162 -28 -240 -58 -175 -141 -321 -270 -472 -87 -101 -258
-245 -313 -262 -21 -7 -20 -4 14 91 85 240 118 439 134 817 l11 270 -28 23
c-99 79 -473 128 -801 105 -247 -18 -423 -58 -463 -107 -13 -16 -11 -16 25 2
129 65 503 106 765 84 150 -12 272 -30 290 -41 11 -7 12 -39 1 -187 -42 -610
-165 -1054 -343 -1233 -50 -51 -115 -80 -177 -80 -92 1 -244 81 -326 173 -136
151 -235 520 -275 1021 -16 209 -14 250 15 284 33 39 99 66 220 91 265 53 594
54 857 1 160 -33 235 -70 275 -135 11 -19 12 -18 12 7 1 18 -11 41 -34 67 -40
44 -41 52 -19 86 15 23 15 27 0 50 -42 64 -163 112 -361 145 -71 12 -138 23
-148 26 -29 9 -48 49 -113 238 -35 99 -63 172 -63 160z m83 -408 c19 -9 90
-23 158 -32 147 -18 263 -46 330 -80 50 -25 57 -40 39 -87 l-9 -24 -119 23
c-174 35 -457 50 -647 35 -129 -10 -321 -43 -377 -66 -26 -10 -44 51 -24 82
33 49 166 95 349 118 120 15 181 38 215 79 12 14 15 13 32 -8 10 -13 34 -31
53 -40z m-961 -130 c18 -7 43 -26 57 -42 25 -29 25 -29 1 -9 -13 11 -22 16
-19 10 2 -5 11 -25 18 -42 8 -18 17 -33 21 -33 9 0 -18 -76 -39 -112 -9 -15
-20 -28 -24 -28 -18 0 -6 -43 18 -66 21 -22 32 -25 70 -22 39 3 44 1 44 -17 0
-36 -51 -85 -105 -100 -50 -14 -50 -15 -10 -11 22 1 49 6 60 10 13 5 11 2 -5
-8 -39 -24 -129 -19 -113 7 4 6 0 8 -10 4 -10 -4 -26 6 -46 29 -24 27 -31 44
-31 77 0 49 17 77 64 106 43 27 54 27 30 -1 -13 -15 -7 -12 19 8 86 67 60 186
-46 215 -51 13 -110 -7 -154 -54 -44 -46 -100 -162 -125 -259 -30 -121 -22
-270 21 -387 55 -150 121 -250 266 -400 62 -66 73 -80 35 -47 -283 248 -422
590 -351 869 61 238 209 365 354 303z m2073 -35 c63 -28 88 -52 113 -111 71
-164 40 -451 -74 -686 -89 -184 -220 -343 -375 -456 -84 -61 -124 -84 -70 -41
19 15 68 55 110 89 238 192 409 516 410 775 0 87 -22 228 -44 281 -39 91 -117
137 -251 146 -63 3 -88 1 -113 -12 -18 -9 -32 -14 -32 -12 0 8 61 38 95 47 53
14 178 3 231 -20z m-81 -42 c23 -7 57 -28 81 -53 36 -35 44 -52 59 -120 21
-95 16 -296 -9 -391 -21 -76 -92 -226 -147 -307 -44 -65 -210 -236 -289 -298
-36 -28 -30 -18 32 48 170 183 294 422 328 635 16 97 8 267 -15 334 -38 113
-115 161 -202 128 -53 -21 -68 -45 -54 -87 11 -31 11 -31 -9 -13 -15 14 -20
29 -18 54 3 31 9 39 48 59 50 25 128 29 195 11z m-1994 -28 c19 -20 29 -39 28
-58 l-1 -28 -9 32 c-10 34 -42 63 -70 63 -47 0 -114 -101 -142 -216 -49 -197
-18 -397 98 -624 l44 -85 -40 45 c-86 96 -157 215 -196 326 -51 149 -31 339
52 480 33 57 98 91 173 93 24 1 42 -7 63 -28z m-24 -99 c8 -5 -6 -16 -37 -30
-114 -52 -115 -200 -3 -274 59 -38 108 -51 179 -45 l64 5 4 -32 c3 -17 13 -92
21 -166 25 -206 80 -436 135 -564 11 -27 19 -50 17 -52 -7 -7 -163 115 -240
186 -149 139 -286 424 -303 627 -11 135 29 316 75 343 19 11 71 13 88 2z
m1827 -47 c20 -31 20 -55 0 -83 -14 -20 -14 -23 0 -28 21 -8 67 4 89 23 21 20
22 71 1 103 -14 23 -14 23 10 -2 35 -39 44 -107 20 -149 -24 -40 -91 -88 -138
-99 -40 -9 -102 2 -120 20 -8 10 -6 10 11 1 12 -6 41 -11 65 -10 l43 1 -49 13
c-63 18 -79 34 -80 87 -1 38 2 43 29 51 88 28 88 27 82 68 -6 43 11 44 37 4z
m-344 -290 c-16 -188 -48 -435 -72 -550 -75 -365 -236 -598 -418 -605 -68 -3
-69 -2 -15 29 67 39 160 138 230 244 159 244 239 552 260 997 3 74 9 151 13
170 12 62 14 -144 2 -285z m-457 -1224 c47 -11 53 -17 38 -35 -8 -10 -45 -15
-129 -18 -64 -3 -123 -7 -130 -9 -20 -6 -40 27 -25 42 26 26 170 37 246 20z
m-42 -118 c27 -6 16 -9 -56 -13 -93 -6 -129 -1 -85 11 35 10 101 10 141 2z
m-31 -39 l35 -6 -9 -63 -10 -63 -48 -6 c-59 -8 -68 -4 -68 37 0 18 -4 49 -9
70 l-9 37 42 0 c22 0 57 -3 76 -6z m10 -246 c1 -61 21 -195 35 -229 5 -15 -4
-17 -74 -20 -51 -3 -85 -9 -93 -18 -11 -11 -5 -13 37 -8 28 3 78 3 111 0 51
-5 67 -11 100 -40 l39 -34 -155 7 c-85 4 -171 6 -190 5 l-34 -1 31 32 c58 60
93 175 93 311 l0 57 50 0 50 0 0 -62z m35 -428 c4 -6 -19 -10 -62 -11 -37 -1
-81 -5 -98 -9 -24 -7 189 -6 295 1 14 1 43 -6 65 -16 l40 -18 -35 -9 c-47 -14
-560 -23 -560 -11 0 12 27 36 60 53 47 25 282 41 295 20z m62 -6 c-3 -3 -12
-4 -19 -1 -8 3 -5 6 6 6 11 1 17 -2 13 -5z m36 -104 c144 0 227 -4 227 -10 0
-6 -132 -10 -377 -10 -242 0 -374 3 -367 10 9 9 190 19 254 13 19 -1 137 -3
263 -3z m427 -60 c0 -7 -205 -10 -596 -10 -394 0 -593 3 -589 10 4 6 213 10
596 10 386 0 589 -3 589 -10z m-77 -83 c15 -11 17 -29 15 -152 l-3 -140 -524
-3 c-378 -1 -528 1 -537 9 -22 18 -20 262 2 283 14 14 75 16 523 16 392 0 511
-3 524 -13z m-210 -374 c-172 -2 -454 -2 -626 0 -171 1 -31 2 313 2 344 0 484
-1 313 -2z m377 -38 c11 -13 -66 -15 -680 -15 -614 0 -691 2 -680 15 11 13 99
15 680 15 581 0 669 -2 680 -15z m21 -105 c-1 -36 -8 -68 -15 -72 -6 -4 -319
-7 -696 -5 l-685 2 -3 59 c-2 32 -1 65 2 72 5 12 120 14 703 12 l698 -3 -4
-65z m79 -125 c11 -13 -76 -15 -771 -15 -692 1 -782 2 -765 15 30 23 1517 22
1536 0z m-322 -72 c-245 -2 -650 -2 -900 0 -249 1 -48 2 447 2 495 0 699 -1
453 -2z"/>
<path d="M1571 4106 c2 -2 15 -9 29 -15 24 -11 24 -11 6 3 -16 13 -49 24 -35
12z"/>
<path d="M4070 4527 c0 -2 15 -16 33 -33 l32 -29 -29 33 c-28 30 -36 37 -36
29z"/>
<path d="M3428 4513 c7 -3 16 -2 19 1 4 3 -2 6 -13 5 -11 0 -14 -3 -6 -6z"/>
<path d="M3361 4480 c-28 -29 -48 -85 -43 -120 12 -74 119 -121 156 -69 19 28
13 42 -25 56 -35 14 -34 32 2 50 33 17 173 16 242 -2 54 -14 143 -53 178 -79
8 -6 1 1 -15 17 -54 48 -177 89 -288 95 -54 2 -98 9 -98 13 0 17 -47 9 -74
-12 -49 -39 -21 -118 39 -107 16 4 24 1 22 -6 -6 -19 -62 -18 -87 2 -35 28
-32 78 7 113 28 24 42 28 125 34 51 3 151 2 222 -3 150 -10 139 -3 210 -147
51 -102 79 -184 80 -231 1 -18 4 -30 7 -29 3 2 14 -46 25 -108 14 -81 19 -158
19 -277 -1 -119 2 -151 8 -115 4 28 8 106 9 175 1 210 -44 416 -133 597 -68
139 -82 149 -212 158 -151 10 -340 3 -360 -14 -10 -7 -17 -9 -17 -5 0 5 12 17
28 26 15 10 22 18 15 18 -6 0 -25 -14 -42 -30z"/>
<path d="M1344 4490 c-62 -5 -122 -11 -134 -15 -43 -14 -198 -287 -249 -440
-48 -145 -64 -259 -57 -410 9 -205 62 -394 156 -558 102 -179 335 -443 510
-578 141 -110 150 -108 38 7 -370 379 -551 713 -573 1059 -16 256 62 574 174
710 29 35 28 35 -9 -5 -129 -138 -207 -470 -180 -772 20 -232 54 -356 131
-481 44 -72 20 -49 -40 37 -79 115 -137 260 -110 276 9 6 8 24 -5 76 -69 289
-40 598 79 840 l45 90 118 38 c79 26 143 40 198 43 80 6 82 5 100 -22 15 -23
15 -28 3 -36 -8 -5 -19 -9 -25 -9 -18 0 -35 -26 -28 -43 15 -41 96 -26 139 24
18 22 25 42 25 70 0 53 -14 78 -55 95 -37 15 -74 15 -251 4z m263 -42 c34 -32
31 -79 -8 -117 -31 -31 -81 -42 -94 -21 -3 6 5 10 19 10 38 0 55 10 72 41 21
42 -10 89 -72 110 -24 7 -21 8 16 3 26 -3 54 -14 67 -26z m-101 -3 c18 -13 15
-14 -31 -15 -59 0 -154 -22 -248 -55 -38 -14 -73 -25 -78 -25 -13 0 18 58 47
86 22 23 30 24 157 24 102 0 138 -3 153 -15z"/>
<path d="M4151 4430 c14 -19 38 -57 51 -85 24 -46 31 -69 59 -176 11 -42 27
-52 59 -36 32 17 30 31 -4 32 -28 0 -32 5 -56 75 -26 78 -87 188 -117 211 -10
8 -6 -2 8 -21z"/>
<path d="M969 4392 c-68 -91 -81 -119 -74 -160 5 -32 2 -41 -19 -61 -26 -24
-56 -23 -56 2 0 8 14 39 30 70 40 76 38 84 -4 17 -45 -71 -52 -102 -31 -124
33 -33 60 -16 107 68 18 33 39 61 47 64 9 3 12 0 8 -9 -162 -364 -178 -652
-57 -994 118 -331 349 -643 695 -935 176 -150 249 -224 275 -282 24 -53 25
-76 3 -100 -18 -20 -4 -25 15 -6 29 29 5 112 -57 195 -17 23 -86 88 -153 144
-244 201 -402 368 -538 569 -139 206 -237 431 -276 636 -22 117 -22 313 1 419
21 98 70 256 97 308 20 40 21 78 3 84 -6 2 -25 -11 -43 -28 -58 -57 -36 15 35
114 45 63 38 71 -8 9z"/>
<path d="M1259 4323 c-13 -16 -12 -17 4 -4 9 7 17 15 17 17 0 8 -8 3 -21 -13z"/>
<path d="M4102 4308 c-7 -7 -12 -21 -11 -32 0 -20 1 -20 9 2 14 34 54 29 78
-10 52 -84 87 -303 79 -498 -8 -222 -82 -463 -211 -687 -61 -107 -164 -263
-173 -263 -2 0 -2 3 0 8 2 4 22 39 44 77 56 96 145 293 177 390 67 199 88 406
67 649 -10 105 -10 158 -2 206 9 53 8 67 -3 78 -12 12 -16 11 -27 -9 -10 -18
-15 -103 -20 -324 -11 -448 -51 -649 -185 -916 -84 -169 -237 -382 -378 -528
-117 -121 -36 -63 161 116 85 77 224 230 301 331 54 71 169 301 204 407 64
194 90 427 69 615 -23 202 -71 369 -112 390 -24 13 -53 12 -67 -2z"/>
<path d="M3905 4266 c10 -14 19 -26 22 -26 7 0 -17 39 -28 46 -6 3 -3 -5 6
-20z"/>
<path d="M3957 4175 c15 -30 29 -53 31 -51 4 5 -46 106 -53 106 -3 0 7 -25 22
-55z"/>
<path d="M4175 4165 c3 -16 12 -61 20 -100 33 -154 30 -325 -10 -600 -2 -16 4
3 15 43 51 198 46 481 -11 635 -11 30 -17 39 -14 22z"/>
<path d="M3990 4105 c0 -5 5 -17 10 -25 5 -8 10 -10 10 -5 0 6 -5 17 -10 25
-5 8 -10 11 -10 5z"/>
<path d="M1945 3868 c-4 -17 -4 -99 -1 -182 13 -282 50 -532 102 -695 29 -88
99 -234 121 -253 10 -8 7 5 -9 37 -35 69 -83 222 -108 344 -30 146 -46 283
-67 549 -9 127 -21 232 -24 232 -4 0 -11 -14 -14 -32z"/>
<path d="M2094 3468 c12 -269 43 -462 95 -580 38 -88 130 -168 194 -168 23 0
21 4 -32 58 -117 118 -203 381 -241 740 -7 61 -15 112 -18 112 -2 0 -1 -73 2
-162z"/>
<path d="M4052 3460 c0 -14 2 -19 5 -12 2 6 2 18 0 25 -3 6 -5 1 -5 -13z"/>
<path d="M3984 2798 c-121 -179 -255 -324 -518 -562 -108 -98 -151 -151 -165
-203 -11 -39 2 -88 25 -97 19 -7 54 10 54 26 0 9 -3 9 -12 0 -38 -38 -68 20
-43 84 19 50 76 110 260 277 152 137 266 261 354 384 54 77 106 163 98 163 -2
0 -26 -33 -53 -72z"/>
<path d="M1837 2013 c-4 -3 -7 -13 -7 -22 1 -13 3 -13 11 2 11 19 8 33 -4 20z"/>
</g>
</svg>